<svg xmlns="http://www.w3.org/2000/svg" xmlns:xlink="http://www.w3.org/1999/xlink" width="1787.803" height="1103" viewBox="0 0 1787.803 1103">
  <defs>
    <linearGradient id="linear-gradient" x1="0.213" y1="0.195" x2="0.744" y2="0.447" gradientUnits="objectBoundingBox">
      <stop offset="0" stop-color="#af0" stop-opacity="0.588"/>
      <stop offset="1" stop-color="#f90" stop-opacity="0.588"/>
    </linearGradient>
    <linearGradient id="linear-gradient-2" x1="0.213" y1="0.195" x2="0.744" y2="0.447" gradientUnits="objectBoundingBox">
      <stop offset="0" stop-color="#d205f2" stop-opacity="0.588"/>
      <stop offset="1" stop-color="red" stop-opacity="0.58"/>
    </linearGradient>
    <linearGradient id="linear-gradient-4" x1="0.296" y1="-0.323" x2="0.687" y2="0.858" gradientUnits="objectBoundingBox">
      <stop offset="0" stop-color="#ca3dbc" stop-opacity="0.31"/>
      <stop offset="0.843" stop-color="#0df3ab" stop-opacity="0.741"/>
      <stop offset="1" stop-color="#0fa" stop-opacity="0.769"/>
    </linearGradient>
    <filter id="Ellipse_4" x="1327.803" y="819" width="284" height="284" filterUnits="userSpaceOnUse">
      <feOffset dy="3" input="SourceAlpha"/>
      <feGaussianBlur stdDeviation="3" result="blur"/>
      <feFlood flood-opacity="0.161"/>
      <feComposite operator="in" in2="blur"/>
      <feComposite in="SourceGraphic"/>
    </filter>
    <linearGradient id="linear-gradient-5" x1="0.871" y1="-0.643" x2="0.267" y2="0.691" gradientUnits="objectBoundingBox">
      <stop offset="0" stop-color="#f60"/>
      <stop offset="0.231" stop-color="#ff8000"/>
      <stop offset="1" stop-color="#ffdf00" stop-opacity="0.588"/>
    </linearGradient>
    <filter id="Ellipse_3" x="218.527" y="74" width="637" height="637" filterUnits="userSpaceOnUse">
      <feOffset dy="3" input="SourceAlpha"/>
      <feGaussianBlur stdDeviation="10" result="blur-2"/>
      <feFlood flood-opacity="0.161"/>
      <feComposite operator="in" in2="blur-2"/>
      <feComposite in="SourceGraphic"/>
    </filter>
    <linearGradient id="linear-gradient-6" x1="0.726" y1="0.159" x2="0.65" y2="0.699" gradientUnits="objectBoundingBox">
      <stop offset="0" stop-color="#f6ff00" stop-opacity="0.6"/>
      <stop offset="1" stop-color="#00ffe6" stop-opacity="0.588"/>
    </linearGradient>
    <filter id="Ellipse_2" x="874.823" y="427.009" width="604.982" height="604.982" filterUnits="userSpaceOnUse">
      <feOffset dy="3" input="SourceAlpha"/>
      <feGaussianBlur stdDeviation="3" result="blur-3"/>
      <feFlood flood-opacity="0.161"/>
      <feComposite operator="in" in2="blur-3"/>
      <feComposite in="SourceGraphic"/>
    </filter>
    <linearGradient id="linear-gradient-7" x1="1.246" y1="-0.485" x2="0.267" y2="0.691" gradientUnits="objectBoundingBox">
      <stop offset="0" stop-color="#f23005" stop-opacity="0.588"/>
      <stop offset="0.485" stop-color="#ff8000" stop-opacity="0.812"/>
      <stop offset="1" stop-color="#ffdf00" stop-opacity="0.588"/>
    </linearGradient>
    <filter id="Ellipse_1" x="1150.803" y="0" width="637" height="637" filterUnits="userSpaceOnUse">
      <feOffset dy="3" input="SourceAlpha"/>
      <feGaussianBlur stdDeviation="10" result="blur-4"/>
      <feFlood flood-color="#ffbc00" flood-opacity="0.569"/>
      <feComposite operator="in" in2="blur-4"/>
      <feComposite in="SourceGraphic"/>
    </filter>
  </defs>
  <g id="Group_31" data-name="Group 31" transform="translate(-45.473 27)">
    <path id="Path_4" data-name="Path 4" d="M202.5,0C314.338,0,405,90.662,405,202.5S314.338,405,202.5,405,0,314.338,0,202.5,90.662,0,202.5,0Z" transform="matrix(-0.574, 0.819, -0.819, -0.574, 1355.701, 306.771)" fill="url(#linear-gradient)"/>
    <path id="Path_5" data-name="Path 5" d="M140.894,0A140.894,140.894,0,1,1,0,140.894,140.894,140.894,0,0,1,140.894,0Z" transform="matrix(-0.574, 0.819, -0.819, -0.574, 437.928, 348.663)" fill="url(#linear-gradient-2)"/>
    <path id="Path_3" data-name="Path 3" d="M202.5,0C314.338,0,405,90.662,405,202.5S314.338,405,202.5,405,0,314.338,0,202.5,90.662,0,202.5,0Z" transform="matrix(-0.574, 0.819, -0.819, -0.574, 831.527, 709.771)" fill="url(#linear-gradient-2)"/>
    <g transform="matrix(1, 0, 0, 1, 45.47, -27)" filter="url(#Ellipse_4)">
      <circle id="Ellipse_4-2" data-name="Ellipse 4" cx="133" cy="133" r="133" transform="translate(1336.8 825)" fill="url(#linear-gradient-4)"/>
    </g>
    <g transform="matrix(1, 0, 0, 1, 45.47, -27)" filter="url(#Ellipse_3)">
      <circle id="Ellipse_3-2" data-name="Ellipse 3" cx="288.5" cy="288.5" r="288.5" transform="translate(248.53 101)" fill="url(#linear-gradient-5)"/>
    </g>
    <g transform="matrix(1, 0, 0, 1, 45.47, -27)" filter="url(#Ellipse_2)">
      <circle id="Ellipse_2-2" data-name="Ellipse 2" cx="288.5" cy="288.5" r="288.5" transform="matrix(0.02, 1, -1, 0.02, 1460.73, 433.01)" fill="url(#linear-gradient-6)"/>
    </g>
    <g transform="matrix(1, 0, 0, 1, 45.47, -27)" filter="url(#Ellipse_1)">
      <circle id="Ellipse_1-2" data-name="Ellipse 1" cx="288.5" cy="288.5" r="288.5" transform="translate(1180.8 27)" fill="url(#linear-gradient-7)"/>
    </g>
  </g>
</svg>
